<?xml version="1.0" encoding="UTF-8"?>
<svg width="141px" height="44px" viewBox="0 0 141 44" version="1.1" xmlns="http://www.w3.org/2000/svg" xmlns:xlink="http://www.w3.org/1999/xlink">
    <!-- Generator: Sketch 58 (84663) - https://sketch.com -->
    <title>logo tg</title>
    <desc>Created with Sketch.</desc>
    <g id="Page-1" stroke="none" stroke-width="1" fill="none" fill-rule="evenodd">
        <g id="Desktop-Copy" transform="translate(-39.000000, -14.000000)" fill="#FFFFFF">
            <g id="logo-tg" transform="translate(39.000000, 14.000000)">
                <path d="M36.8225,12.9116 L34.059,15.7048 L31.9136,15.5206 L30.8558,16.5487 L33.3221,17.7908 L34.5642,20.168 L35.6458,19.0864 L35.3903,16.9469 L38.1359,14.2072 L41.7017,21 L43.0388,19.6628 L40.8994,11.4319 L44.5365,7.771 C44.9287,7.37876 45,7.2183 45,6.9687 C44.9947,6.45411 44.5925,6.03116 44.0788,6 C43.7758,6 43.5677,6.13669 43.1993,6.50515 L39.6335,10.0709 L31.3134,8.06815 L30,9.38154 L36.8225,12.9116 Z" id="Path"></path>
                <path d="M1.30448,33.7764 C-0.657775,30.2781 7.14109,22.8169 16.735,17.105 C21.6796,14.1687 26.3623,12.0869 30.1809,11.0259 C30.4035,10.9598 30.6435,11.0223 30.8086,11.1895 C30.9737,11.3567 31.0383,11.6025 30.9775,11.8325 C30.9168,12.0625 30.7401,12.2409 30.5154,12.2991 C26.8306,13.3257 22.2538,15.3558 17.3761,18.2519 C7.05189,24.3826 1.20972,31.0408 2.39711,33.1111 C2.50118,33.4111 2.38391,33.745 2.11743,33.9072 C1.85095,34.0695 1.51006,34.0146 1.30448,33.7764 Z" id="Path"></path>
                <path d="M0.0877145,11.5184 C4.41106,4.03553 42.986,26.254 38.6626,33.7138 C38.4633,33.9989 38.0778,34.0841 37.776,33.9098 C37.4743,33.7355 37.3572,33.36 37.5066,33.0461 C38.7146,30.9739 32.6747,24.2854 21.9934,18.1264 C11.3122,11.9674 2.46902,10.0679 1.26103,12.1804 C1.07748,12.503 0.666031,12.6164 0.342029,12.4336 C0.0180271,12.2508 -0.0958334,11.8411 0.0877145,11.5184 Z" id="Path"></path>
                <path d="M19.2977,43.9974 C15.4033,43.9974 13,33.3661 13,21.9987 C13,10.6313 15.3755,0 19.2921,0 C19.6454,0 19.9319,0.293814 19.9319,0.656252 C19.9319,1.01869 19.6454,1.3125 19.2921,1.3125 C16.9666,1.3125 14.2851,9.79242 14.2851,21.9987 C14.2851,34.205 16.9722,42.6792 19.2921,42.6792 C19.5358,42.6548 19.772,42.7741 19.9018,42.9871 C20.0317,43.2 20.0328,43.47 19.9048,43.6841 C19.7767,43.8983 19.5416,44.0196 19.2977,43.9974 Z" id="Path"></path>
                <path d="M19.7395,0 C23.6606,0 26,10.6312 26,21.9986 C26,33.3659 23.6272,43.9971 19.706,43.9971 C19.4619,44.0204 19.2259,43.9002 19.0968,43.6866 C18.9677,43.473 18.9677,43.203 19.0968,42.9895 C19.2259,42.7759 19.4619,42.6556 19.706,42.6789 C22.0342,42.6789 24.7189,34.1991 24.7189,21.9986 C24.7189,9.79807 22.0621,1.3125 19.7395,1.3125 C19.3857,1.3125 19.0989,1.01868 19.0989,0.656248 C19.0989,0.293812 19.3857,0 19.7395,0 Z" id="Path"></path>
                <path d="M38.9645,33.4845 C34.6321,40.9529 -3.98908,18.7777 0.337507,11.3324 C0.456331,11.1271 0.676375,11.0004 0.914751,10.999999 C1.15313,10.9996 1.37362,11.1255 1.49317,11.3303 C1.61273,11.5352 1.61317,11.7878 1.49435,11.993 C0.297018,14.0899 6.33574,20.7424 17.0712,26.8837 C27.8067,33.0249 36.6277,34.9265 37.8366,32.8181 C38.0516,32.5874 38.3999,32.5373 38.672,32.6981 C38.9441,32.8589 39.066,33.1867 38.9645,33.4845 Z" id="Path"></path>
                <path d="M33.6919,19.2301 C30.3791,22.2083 26.7799,24.8316 22.9503,27.0593 C13.2637,32.833 3.01592,36.0548 1.06289,32.5386 C0.917776,32.2238 1.03153,31.8471 1.32449,31.6722 C1.61745,31.4974 1.99176,31.5829 2.18532,31.8688 C3.35264,33.9589 11.928,32.0825 22.3217,25.9103 C26.0768,23.7287 29.6063,21.1597 32.8557,18.2428 C33.0184,18.0389 33.283,17.9534 33.5297,18.0249 C33.7765,18.0965 33.9587,18.3117 33.9939,18.573 C34.029,18.8343 33.9105,19.0922 33.6919,19.2301 Z" id="Path"></path>
                <path d="M56,26.9874 L56,24.9924 L55.1482,24.9924 C54.5648,24.9924 54.3314,24.6824 54.3314,24.1383 L54.3314,19.6101 L56,19.6101 L56,17.7965 L54.3314,17.7965 L54.3314,15 L51.9977,15 L51.9977,17.7965 L51,17.7965 L51,19.6101 L51.9977,19.6101 L51.9977,24.2904 C51.9554,25.0267 52.2316,25.7455 52.7556,26.263 C53.2795,26.7806 54.0004,27.0467 54.734,26.9933 L56,26.9874 Z" id="Path"></path>
                <path d="M65,18.84 C64.5005,18.2657 63.7934,17.9599 63.0675,18.0042 C62.2816,17.9896 61.5272,18.3396 60.9933,18.9665 L60.9933,18.1032 L59,18.1032 L59,27 L61.0236,27 L61.0236,21.6388 C60.9708,20.993 61.3082,20.3843 61.8581,20.1331 C62.4081,19.882 63.0443,20.0461 63.4317,20.5391 L65,18.84 Z" id="Path"></path>
                <path d="M74,26.9146 L74,21.119 C74,19.0488 72.5944,18 69.8905,18 C68.2824,18 67.3593,18.2677 66.4123,19.2181 L67.9311,20.5728 C68.3687,20.0512 69.0694,19.7743 69.7833,19.8408 C71.0578,19.8408 71.57,20.2669 71.57,21.2337 L71.57,21.6653 L69.2949,21.6653 C67.0556,21.6653 66.0014,22.8178 66.0014,24.2271 C65.9775,24.9579 66.2636,25.6687 66.7995,26.21 C67.4669,26.7702 68.3569,27.0528 69.2592,26.9911 C70.1527,27.058 71.0304,26.746 71.6415,26.1444 L71.6415,26.9037 L74,26.9146 Z M71.6177,23.6372 C71.669,24.0301 71.5419,24.4251 71.2663,24.7297 C70.8514,25.0669 70.2972,25.2224 69.7476,25.1557 C68.8066,25.1557 68.3599,24.746 68.3599,24.1343 C68.3599,23.5225 68.8423,23.1346 69.7118,23.1346 L71.6177,23.1346 L71.6177,23.6372 Z" id="Shape"></path>
                <polygon id="Path" points="84 18 81.4602 18 79.512 23.5624 77.5458 18 75 18 78.5618 27 80.4562 27"></polygon>
                <path d="M92,23.1681 L92,22.2008 C92,19.7879 90.5537,18 88.0142,18 C85.6285,18 84,19.6303 84,22.4888 C84,26.0483 86.0897,26.9939 88.2648,26.9939 C89.5918,27.0624 90.8797,26.5527 91.7665,25.6081 L90.3658,24.3093 C89.8451,24.881 89.0737,25.1867 88.2819,25.1353 C87.7313,25.1685 87.1927,24.9719 86.8059,24.5965 C86.4191,24.2211 86.2221,23.7038 86.2662,23.179 L92,23.1681 Z M89.7224,21.6682 L86.2206,21.6682 C86.2227,21.3426 86.2944,21.0208 86.4313,20.7226 C86.7167,20.1602 87.3139,19.8029 87.9687,19.8029 C88.6235,19.8029 89.2206,20.1602 89.5061,20.7226 C89.6493,21.0159 89.7288,21.3339 89.7395,21.6573 L89.7224,21.6682 Z" id="Shape"></path>
                <path d="M98,26.9865 L98,24.9836 L97.1126,24.9836 C96.5401,24.9836 96.2939,24.6899 96.2939,24.1261 L96.2939,14 L94.0039,14 L94.0039,24.2788 C93.9638,25.0208 94.2376,25.7444 94.7553,26.2642 C95.2729,26.784 95.9839,27.0494 96.7061,26.9924 L98,26.9865 Z" id="Path"></path>
                <path d="M107,27.0747 L107,18.0806 L104.956,18.0806 L104.956,18.9875 C104.449,18.3149 103.682,17.9501 102.891,18.0055 C102.144,17.9748 101.415,18.2693 100.863,18.8258 C100.068,19.7096 100,20.8938 100,22.5228 C100,24.1517 100.068,25.359 100.863,26.2371 C101.409,26.7951 102.132,27.0921 102.875,27.0631 C103.641,27.1154 104.384,26.7718 104.888,26.1331 L104.888,27.0747 C104.935,27.5935 104.773,28.109 104.444,28.4832 C104.116,28.8575 103.654,29.0523 103.184,29.0156 C102.563,29.0489 101.96,28.7859 101.527,28.2935 L100.214,29.7665 C101.03,30.6439 102.149,31.0884 103.283,30.9854 C105.557,30.9623 107,29.3333 107,27.0747 Z M104.909,22.4534 C104.909,23.6954 104.763,24.8969 103.513,24.8969 C102.264,24.8969 102.133,23.6954 102.133,22.4534 C102.133,21.2115 102.264,20.0331 103.513,20.0331 C104.763,20.0331 104.888,21.2577 104.888,22.4939 L104.909,22.4534 Z" id="Shape"></path>
                <path d="M117,23.1681 L117,22.2008 C117,19.7879 115.554,18 113.003,18 C110.622,18 109,19.6303 109,22.4888 C109,26.0483 111.081,26.9939 113.247,26.9939 C114.568,27.0624 115.85,26.5527 116.734,25.6081 L115.339,24.2984 C114.817,24.8696 114.048,25.175 113.258,25.1245 C112.71,25.1577 112.173,24.9611 111.788,24.5856 C111.403,24.2102 111.207,23.6929 111.251,23.1681 L117,23.1681 Z M114.772,21.6573 L111.257,21.6573 C111.261,21.332 111.333,21.0108 111.466,20.7118 C111.749,20.1462 112.346,19.7864 113,19.7864 C113.654,19.7864 114.251,20.1462 114.534,20.7118 C114.68,21.008 114.761,21.3298 114.772,21.6573 Z" id="Shape"></path>
                <path d="M126.99,27 L126.99,21.3135 C127.066,20.3796 126.709,19.46 126.007,18.7837 C125.393,18.2505 124.573,17.9689 123.731,18.0027 C122.835,17.9999735 121.975,18.3311 121.348,18.9212 L121.348,18.1017 L119,18.1017 L119,27 L121.383,27 L121.383,21.6214 C121.319,21.0566 121.608,20.5072 122.13,20.2061 C122.652,19.905 123.314,19.905 123.836,20.2061 C124.358,20.5072 124.648,21.0566 124.583,21.6214 L124.583,27 L126.99,27 Z" id="Path"></path>
                <path d="M132,15.4134 C132,14.6328 131.328,14 130.5,14 C129.672,14 129,14.6328 129,15.4134 C129,16.194 129.672,16.8268 130.5,16.8268 C131.328,16.8268 132,16.194 132,15.4134 Z M131.704,27 L131.704,17.9609 L129.332,17.9609 L129.332,27 L131.704,27 Z" id="Shape"></path>
                <path d="M141,22.4944 C141,20.9103 140.777,19.9174 139.928,19.0874 C139.157,18.3656 138.096,17.9727 137,18.0023 C135.903,17.966 134.839,18.3599 134.072,19.0874 C133.217,19.9174 133,20.9103 133,22.4944 C133,24.0786 133.217,25.0877 134.072,25.9124 C134.838,26.6415 135.902,27.0358 137,26.9974 C138.097,27.029 139.158,26.6358 139.928,25.9124 C140.777,25.0877 141,24.0949 141,22.4944 Z M138.657,22.4944 C138.657,23.4059 138.599,24.1763 138.113,24.632 C137.816,24.8988 137.413,25.0402 137,25.0226 C136.594,25.0407 136.198,24.8989 135.911,24.632 C135.419,24.1763 135.366,23.4059 135.366,22.4944 C135.366,21.583 135.419,20.8235 135.911,20.3677 C136.2,20.1046 136.595,19.965 137,19.9825 C137.412,19.9655 137.814,20.1045 138.113,20.3677 C138.575,20.8235 138.634,21.583 138.634,22.4944 L138.657,22.4944 Z" id="Shape"></path>
            </g>
        </g>
    </g>
</svg>