<?xml version="1.0" encoding="UTF-8"?>
<svg width="17px" height="16px" viewBox="0 0 17 16" version="1.1" xmlns="http://www.w3.org/2000/svg" xmlns:xlink="http://www.w3.org/1999/xlink">
    <title></title>
    <desc></desc>
    <g id="Page-1" stroke="none" stroke-width="1" fill="none" fill-rule="evenodd">
        <g id="Desktop-Copy" transform="translate(-841.000000, -28.000000)" fill="#FFFFFF" fill-rule="nonzero">
            <g id="MUNDO" transform="translate(841.000000, 28.000000)">
                <path d="M16.2,8 C16.2,6.9 16,5.9 15.6,5 C15.2,4.1 14.7,3.2 14,2.5 C13.3,1.8 12.5,1.2 11.6,0.8 C10.6,0.3 9.7,0.1 8.6,0 C8.6,0 8.5,0 8.5,0 C8.5,0 8.4,0 8.4,0 C8.4,0 8.4,0 8.4,0 C8.4,0 8.4,0 8.4,0 C8.4,0 8.4,0 8.3,0 C8.3,0 8.3,0 8.2,0 C7,0 6,0.2 5,0.6 C4,1 3.2,1.6 2.5,2.3 C1.7,3.1 1.2,3.9 0.7,4.9 C0.3,5.9 0.1,6.9 0.1,8 C0.1,9.1 0.3,10.1 0.7,11.1 C1.1,12.1 1.7,12.9 2.4,13.6 C3.2,14.4 4,14.9 5,15.4 C6,15.8 7,16 8.1,16 C8.1,16 8.1,16 8.2,16 C8.2,16 8.3,16 8.3,16 C8.3,16 8.3,16 8.3,16 C8.3,16 8.3,16 8.3,16 C8.3,16 8.4,16 8.4,16 C8.5,16 8.5,16 8.5,16 C9.5,15.9 10.5,15.7 11.4,15.2 C12.3,14.8 13.1,14.2 13.8,13.5 C14.5,12.8 15,12 15.4,11 C16,10.1 16.2,9.1 16.2,8 Z M14.7,10.6 C14.6,10.6 14.3,10.5 13.9,10.4 C13.5,10.3 13.1,10.2 12.5,10.2 C12.5,9.9 12.6,9.5 12.6,9.1 C12.6,8.7 12.6,8.4 12.6,8 C12.6,7.7 12.6,7.4 12.6,7.1 C12.6,6.8 12.6,6.5 12.5,6.2 C13.3,6.1 13.8,6 14.2,5.9 C14.6,5.8 14.8,5.8 14.8,5.7 L14.6,5.2 C14.8,5.6 14.9,6 15,6.5 C15.1,6.9 15.1,7.4 15.1,7.9 C15.1,8.4 15.1,8.8 15,9.2 C14.9,9.8 14.8,10.2 14.7,10.6 Z M4.6,8 C4.6,7.7 4.6,7.4 4.6,7.2 C4.6,6.9 4.6,6.7 4.7,6.4 C5.1,6.4 5.5,6.5 6,6.5 C6.5,6.5 7,6.5 7.6,6.5 L7.6,10 C7,10 6.5,10 6.1,10 C5.6,10 5.2,10 4.8,10.1 C4.7,9.8 4.7,9.4 4.7,9.1 C4.7,8.8 4.6,8.4 4.6,8 Z M8.6,1.1 C8.9,1.2 9.2,1.4 9.5,1.6 C9.8,1.8 10,2.2 10.3,2.5 C10.5,2.9 10.7,3.3 10.9,3.8 C11.1,4.3 11.2,4.8 11.4,5.4 C11,5.4 10.6,5.5 10.1,5.5 C9.7,5.5 9.2,5.5 8.6,5.5 L8.6,1.1 Z M7.6,1.1 L7.6,5.5 C7.1,5.5 6.6,5.5 6.1,5.5 C5.6,5.5 5.2,5.5 4.8,5.4 C5,4.8 5.2,4.3 5.3,3.8 C5.5,3.3 5.7,2.9 6,2.5 C6.2,2.1 6.5,1.8 6.8,1.6 C7,1.3 7.3,1.2 7.6,1.1 Z M7.6,11 L7.6,15 C7.3,14.9 7,14.8 6.8,14.5 C6.5,14.3 6.3,14 6.1,13.7 C5.9,13.4 5.7,13 5.5,12.6 C5.3,12 5.1,11.6 5,11.1 C5.4,11 5.8,11 6.2,11 C6.6,11 7.1,11 7.6,11 Z M8.6,14.9 L8.6,10.9 C9.1,10.9 9.6,10.9 10,10.9 C10.4,10.9 10.9,10.9 11.2,11 C11.1,11.5 10.9,12 10.7,12.4 C10.5,12.8 10.3,13.2 10.1,13.6 C10,14 9.7,14.3 9.4,14.5 C9.2,14.7 8.9,14.9 8.6,14.9 Z M8.6,10 L8.6,6.5 C9.2,6.5 9.7,6.5 10.2,6.5 C10.7,6.5 11.1,6.4 11.5,6.4 C11.5,6.7 11.6,6.9 11.6,7.2 C11.6,7.5 11.6,7.7 11.6,8 C11.6,8.4 11.6,8.7 11.6,9.1 C11.6,9.4 11.5,9.8 11.5,10.1 C11.1,10.1 10.7,10 10.2,10 C9.7,10 9.2,10 8.6,10 Z M14.4,4.9 C14.3,4.9 14.1,5 13.8,5.1 C13.5,5.2 13,5.2 12.4,5.3 C12.3,4.5 12.1,3.9 11.8,3.2 C11.6,2.6 11.3,2 10.9,1.6 C11.7,1.9 12.3,2.4 12.9,3 C13.6,3.5 14.1,4.2 14.4,4.9 Z M5.7,1.4 C5.3,1.9 5,2.5 4.7,3.1 C4.3,3.8 4.1,4.5 3.9,5.3 C3.3,5.2 2.9,5.2 2.5,5.1 C2.1,5 1.9,5 1.8,5 C2,4.5 2.2,4.2 2.5,3.8 C2.8,3.4 3.1,3.1 3.4,2.8 C3.7,2.5 4.1,2.2 4.5,2 C4.9,1.8 5.3,1.6 5.7,1.4 Z M1.4,5.9 C1.5,5.9 1.7,6 2.1,6.1 C2.5,6.1 3,6.2 3.7,6.3 C3.7,6.6 3.6,6.9 3.6,7.1 C3.6,7.4 3.6,7.7 3.6,8 C3.6,8.4 3.6,8.7 3.6,9.1 C3.6,9.5 3.7,9.8 3.7,10.2 C3.1,10.3 2.6,10.3 2.3,10.4 C1.9,10.5 1.7,10.5 1.5,10.5 C1.3,10.1 1.2,9.7 1.1,9.3 C1.2,8.9 1.1,8.4 1.1,8 C1.1,7.6 1.1,7.3 1.2,6.9 C1.3,6.6 1.3,6.2 1.4,5.9 Z M2,11.4 C2.2,11.4 2.4,11.3 2.8,11.3 C3.1,11.2 3.5,11.2 4,11.1 C4.2,11.8 4.4,12.5 4.7,13 C5,13.6 5.3,14.1 5.7,14.5 C5.3,14.4 4.9,14.2 4.6,14 C4.2,13.8 3.9,13.5 3.6,13.3 C3.3,13 3,12.7 2.7,12.4 C2.5,12.1 2.2,11.8 2,11.4 Z M10.9,14.4 C11.2,14 11.5,13.5 11.7,12.9 C11.9,12.3 12.1,11.7 12.3,11.1 C12.8,11.2 13.2,11.2 13.5,11.3 C13.8,11.4 14,11.4 14.2,11.4 C13.8,12.1 13.4,12.6 12.8,13.1 C12.2,13.6 11.6,14.1 10.9,14.4 Z" id="Shape"></path>
            </g>
        </g>
    </g>
</svg>