<?xml version="1.0" encoding="UTF-8"?>
<svg width="13px" height="18px" viewBox="0 0 13 18" version="1.1" xmlns="http://www.w3.org/2000/svg" xmlns:xlink="http://www.w3.org/1999/xlink">
    <!-- Generator: Sketch 58 (84663) - https://sketch.com -->
    <title>silueta-de-persona-de-negocios-con-corbata</title>
    <desc>Created with Sketch.</desc>
    <g id="Propuesta-3" stroke="none" stroke-width="1" fill="none" fill-rule="evenodd">
        <g id="2-Resultados" transform="translate(-145.000000, -380.000000)" fill="#657182" fill-rule="nonzero">
            <g id="silueta-de-persona-de-negocios-con-corbata" transform="translate(145.000000, 380.000000)">
                <circle id="Oval" cx="6.11771951" cy="3.56937805" r="3.56937805"></circle>
                <path d="M7.59796341,8 L4.56947561,8 C2.05015854,8 -5.95079541e-14,10.0499512 -5.95079541e-14,12.5696829 L-5.95079541e-14,16.2742317 L0.00932926829,16.3320732 L0.264743902,16.4118902 C2.66920732,17.163 4.75854878,17.414061 6.4782439,17.414061 C9.83657317,17.414061 11.7834878,16.4560488 11.9041463,16.3953049 L12.142561,16.2742317 L12.1676463,16.2742317 L12.1676463,12.5696829 C12.1678537,10.0499512 10.1181098,8 7.59796341,8 Z M6.78921951,15.1891341 L6.1357561,16.1454878 C6.12684146,16.1585488 6.1127439,16.1662195 6.09719512,16.1662195 C6.09678049,16.1662195 6.09636585,16.1662195 6.09595122,16.1662195 C6.08060976,16.1662195 6.06589024,16.1581341 6.05739024,16.1446585 L5.45036585,15.1876829 C5.44518293,15.1795976 5.44269512,15.1698537 5.44310976,15.1594878 L5.74682927,10.5149634 C5.7484878,10.4902927 5.76859756,10.4716341 5.79347561,10.4716341 L6.4235122,10.4716341 C6.44818293,10.4716341 6.4685,10.4902927 6.47057317,10.5149634 L6.79689024,15.1590732 C6.79813415,15.170061 6.79502439,15.1802195 6.78921951,15.1891341 Z M6.49358537,10.3310732 L5.74454878,10.3310732 L5.09336585,8.98517073 C5.09336585,8.8560122 5.19785366,8.75193902 5.3270122,8.75193902 L6.89080488,8.75193902 C7.01954878,8.75193902 7.12403659,8.8560122 7.12403659,8.98517073 L6.49358537,10.3310732 Z" id="Shape"></path>
            </g>
        </g>
    </g>
</svg>