<?xml version="1.0" encoding="UTF-8"?>
<svg width="15px" height="18px" viewBox="0 0 15 18" version="1.1" xmlns="http://www.w3.org/2000/svg" xmlns:xlink="http://www.w3.org/1999/xlink">
    <!-- Generator: Sketch 58 (84663) - https://sketch.com -->
    <title>bed</title>
    <desc>Created with Sketch.</desc>
    <g id="Propuesta-3" stroke="none" stroke-width="1" fill="none" fill-rule="evenodd">
        <g id="2-Resultados" transform="translate(-79.000000, -380.000000)" fill="#657182" fill-rule="nonzero">
            <g id="Aside-búsqueda" transform="translate(62.000000, 148.000000)">
                <g id="bed" transform="translate(17.000000, 232.000000)">
                    <path d="M0.433645823,5.23811032 C0.433645823,3.8128865 1.2106388,2.65332296 2.16572819,2.65332296 L6.05383817,2.65332296 C6.65758501,2.65332296 7.18990383,3.11701266 7.50001895,3.81791923 C7.81017196,3.11695611 8.34245288,2.65332296 8.94619973,2.65332296 L12.8343476,2.65332296 C13.7893991,2.65332296 14.5663921,3.8128865 14.5663921,5.23811032 L14.5663921,5.35714286 L15,5.35714286 L15,2.83659349 C15,1.27248895 14.1472971,0 13.0991808,0 L1.90081924,0 C0.852702897,0 0,1.27248895 0,2.83659349 L0,5.35714286 L0.43360793,5.35714286 L0.43360793,5.23811032 L0.433645823,5.23811032 Z" id="Path"></path>
                    <path d="M14.4032601,6.42857143 L0.596708799,6.42857143 C0.267681871,6.42857143 0,6.91237431 0,7.50705101 L0,13.7678577 C0,14.3625344 0.267681871,14.8463373 0.596708799,14.8463373 L0.845101921,14.8463373 L0.551608535,16.3434428 C0.490449843,16.6553491 0.580805675,16.9977949 0.753348353,17.1082757 C0.789969022,17.1316856 0.82733515,17.1428571 0.864080062,17.1428571 C1.0005301,17.1428571 1.12837631,16.9893741 1.17655159,16.7435991 L1.54850453,14.8462812 L13.4514955,14.8462812 L13.8234484,16.7435991 C13.8716237,16.9893741 13.9994388,17.1428571 14.1359199,17.1428571 C14.1726648,17.1428571 14.210031,17.1316856 14.2466516,17.1082757 C14.4192254,16.9977387 14.5095502,16.655293 14.4483915,16.3434428 L14.1548981,14.8463373 L14.4032912,14.8463373 C14.7323181,14.8463373 15,14.3625344 15,13.7678577 L15,7.50705101 C15,6.91237431 14.7323181,6.42857143 14.4032601,6.42857143 Z" id="Path"></path>
                    <path d="M1.93388977,3.21428571 C1.45830423,3.21428571 1.07142857,4.09918176 1.07142857,5.18680239 L1.07142857,5.35714286 L6.42857143,5.35714286 L6.42857143,5.18672143 C6.42857143,4.0991008 6.04169577,3.21428571 5.56611023,3.21428571 L1.93388977,3.21428571 L1.93388977,3.21428571 Z" id="Path"></path>
                    <path d="M9.43388977,3.21428571 C8.95830423,3.21428571 8.57142857,4.09918176 8.57142857,5.18680239 L8.57142857,5.35714286 L13.9285714,5.35714286 L13.9285714,5.18672143 C13.9285714,4.0991008 13.5416958,3.21428571 13.0661102,3.21428571 L9.43388977,3.21428571 L9.43388977,3.21428571 Z" id="Path"></path>
                </g>
            </g>
        </g>
    </g>
</svg>