<svg width="20" height="20" viewBox="0 0 20 20" fill="none" xmlns="http://www.w3.org/2000/svg">
<path d="M14.6854 8.17261H17.325V12.0812H14.6854V8.17261Z" fill="#3D4355"/>
<path d="M15 1.1043C14.9934 0.488428 14.5003 -0.00570059 13.8979 4.96827e-05H2.06867C1.78282 -0.0015366 1.50842 0.114857 1.30732 0.322462C1.10622 0.530266 0.995487 0.81203 1.00014 1.1043V17.2081H15V1.1043ZM13.9078 11.8274C13.9078 12.0517 13.73 12.2335 13.5107 12.2335H2.48949C2.27016 12.2335 2.09233 12.0517 2.09233 11.8274V6.14215C2.09233 5.91789 2.27016 5.73606 2.48949 5.73606H13.5107C13.73 5.73606 13.9078 5.91789 13.9078 6.14215V11.8274Z" fill="#3D4355"/>
<path d="M1 18.1037C1.00659 18.7196 1.49975 19.2137 2.10208 19.208L13.9313 19.208C14.2172 19.2095 14.4916 19.0932 14.6927 18.8855C14.8938 18.6777 15.0045 18.396 14.9999 18.1037L14.9999 0.999926L0.999998 0.999927L1 18.1037Z" fill="#3D4355"/>
<path d="M16.7283 6.21385V9H17.1989V6.23524C17.6401 6.13194 18 5.67534 18 5.12918C18.0005 4.54595 17.6069 4.05863 17.0922 4.00484C16.5775 3.95119 16.1114 4.34869 16.017 4.92207C15.9225 5.49532 16.2309 6.05535 16.7283 6.21385Z" fill="#3D4355"/>
<rect x="2" y="7" width="12" height="4" fill="white"/>
<rect x="6" y="7" width="4" height="0.999999" transform="rotate(90 6 7)" fill="#3D4355"/>
<rect x="11" y="7" width="4" height="0.999999" transform="rotate(90 11 7)" fill="#3D4355"/>
</svg>
