<?xml version="1.0" encoding="UTF-8"?>
<svg width="10px" height="17px" viewBox="0 0 10 17" version="1.1" xmlns="http://www.w3.org/2000/svg" xmlns:xlink="http://www.w3.org/1999/xlink">
    <!-- Generator: Sketch 58 (84663) - https://sketch.com -->
    <title>Group 2</title>
    <desc>Created with Sketch.</desc>
    <g id="Propuesta-3" stroke="none" stroke-width="1" fill="none" fill-rule="evenodd">
        <g id="2-Resultados" transform="translate(-222.000000, -381.000000)" fill="#657182" fill-rule="nonzero">
            <g id="Aside-filtros" transform="translate(62.000000, 381.000000)">
                <g id="Group-2" transform="translate(160.000000, 0.000000)">
                    <path d="M4.50006575,8 C6.43262385,8 8,6.5779398 8,4.82174084 C8,3.6774529 7.33249422,2.67420065 6.33176157,2.11471526 C6.53861472,1.98191958 6.77952697,1.85927465 7.06422949,1.75442339 C7.1837651,1.71047662 7.26424452,1.60741666 7.27029363,1.4903845 C7.27647423,1.37323292 7.20704101,1.26384367 7.09250249,1.20974615 C6.53900922,0.948692775 5.86453382,0.943318849 5.2280626,1.05414114 C5.336026,0.870472298 5.4719994,0.682862576 5.64663448,0.492625602 C5.72921794,0.402582489 5.74670775,0.277190886 5.69134527,0.171503678 C5.63598279,0.0656970488 5.51802521,-0.00117847279 5.38888993,0 C4.10963536,0.0132714167 2.93650317,1.1908777 2.46914392,1.89510083 C2.360523,2.05870701 2.27899157,2.23198627 2.22757416,2.40669857 C1.47669591,2.98959039 1,3.85515071 1,4.82174084 C1.0001315,6.5779398 2.56750766,8 4.50006575,8 Z" id="Path"></path>
                    <path d="M6.1342031,9 L3.68915852,9 C1.65519208,9 0,10.9782649 0,12.8676027 L0,15.6453366 L0.00753196921,15.6887071 L0.213740549,15.7485553 C2.15498008,16.3117502 3.84180643,16.5 5.23019942,16.5 C7.94154096,16.5 9.51337925,15.7816661 9.61079271,15.7361193 L9.80327637,15.6453366 L9.823529,15.6453366 L9.823529,12.8676027 C9.82369638,10.9782649 8.16883905,9 6.1342031,9 Z" id="Shape"></path>
                </g>
            </g>
        </g>
    </g>
</svg>