<svg width="20" height="20" viewBox="0 0 20 20" fill="none" xmlns="http://www.w3.org/2000/svg">
<path d="M18.9859 8.11169C18.6899 8.11169 18.4499 7.87171 18.4499 7.57567V6.97242C18.4499 6.43616 17.9951 6 17.4359 6H17C16.4477 6 16 6.44772 16 7V13C16 13.5523 16.4477 14 17 14H17.4359C17.9951 14 18.4499 13.5638 18.4499 13.0276V12.4243C18.4499 12.1283 18.6899 11.8883 18.9859 11.8883C19.5452 11.8883 20 11.4521 20 10.9159V9.08412C20 8.54802 19.5452 8.11169 18.9859 8.11169Z" fill="#3D4355"/>
<path d="M15.0719 5.00164C14.4885 5.00044 14 5.47326 14 6.05668V13.9433C14 14.5267 14.4885 14.9995 15.0719 14.9983C15.6092 14.9971 16 14.588 16 14.0508V5.94908C16 5.41182 15.6091 5.00275 15.0719 5.00164Z" fill="#3D4355"/>
<path d="M7 9C7 8.44772 7.44772 8 8 8H12C12.5523 8 13 8.44772 13 9V11C13 11.5523 12.5523 12 12 12H8C7.44772 12 7 11.5523 7 11V9Z" fill="#3D4355"/>
<path d="M4.89355 5.00171C4.38459 5.00279 4 5.39043 4 5.8994V14.1006C4 14.6096 4.38459 14.9972 4.89355 14.9983C4.92857 14.9984 4.96377 14.9984 4.99897 14.9985C5.55165 14.9996 6 14.5517 6 13.999V6.00103C6 5.44834 5.55165 5.00041 4.99897 5.0015C4.96377 5.00157 4.92857 5.00164 4.89355 5.00171Z" fill="#3D4355"/>
<path d="M2.56415 6C2.00492 6 1.55009 6.43616 1.55009 6.97242V7.57567C1.55009 7.87171 1.3101 8.11169 1.01406 8.11169C0.454833 8.11169 0 8.54802 0 9.08412V10.9159C0 11.4521 0.454833 11.8883 1.01406 11.8883C1.3101 11.8883 1.55009 12.1283 1.55009 12.4243V13.0276C1.55009 13.5638 2.00492 14 2.56415 14H3C3.55228 14 4 13.5523 4 13V7C4 6.44772 3.55228 6 3 6H2.56415Z" fill="#3D4355"/>
</svg>
