<svg width="20" height="20" viewBox="0 0 20 20" fill="none" xmlns="http://www.w3.org/2000/svg">
<path d="M2.55448 3.11977C2.78334 2.8909 3.15417 2.8909 3.38303 3.11977L18.6174 18.3541C18.8463 18.583 18.8463 18.9538 18.6174 19.1827C18.3885 19.4116 18.0178 19.4116 17.7889 19.1827L2.55448 3.94833C2.32557 3.71946 2.32557 3.34868 2.55448 3.11977Z" fill="#3D4355"/>
<path d="M17.263 4.06328C16.0799 3.27457 16.0794 1.53355 17.263 0.744487C17.5342 0.564252 17.8976 0.637494 18.0755 0.906987C18.2552 1.17648 18.182 1.54042 17.913 1.71953C17.4239 2.04519 17.4239 2.76257 17.913 3.08824C19.0961 3.87687 19.0967 5.61796 17.913 6.40703C17.6392 6.58847 17.2773 6.51003 17.1005 6.24453C16.9208 5.97503 16.9935 5.61167 17.263 5.43199C17.7521 5.10632 17.7521 4.38894 17.263 4.06328Z" fill="#3D4355"/>
<path d="M13.7474 4.06328C12.5643 3.27457 12.5638 1.53355 13.7474 0.744487C14.018 0.564252 14.3814 0.637494 14.5599 0.906987C14.7396 1.17648 14.6664 1.54042 14.3974 1.71953C13.9083 2.04519 13.9083 2.76257 14.3974 3.08824C15.5805 3.87687 15.581 5.61796 14.3974 6.40703C14.1236 6.58847 13.7616 6.51003 13.5849 6.24453C13.4052 5.97503 13.4779 5.61167 13.7474 5.43199C14.2365 5.10632 14.2365 4.38894 13.7474 4.06328Z" fill="#3D4355"/>
<path d="M17.8281 9.39343C18.4754 9.39343 19 9.91808 19 10.5653V11.7372C19 12.3843 18.4754 12.9091 17.8281 12.9091H16.6172V9.39343H17.8281Z" fill="#3D4355"/>
<path d="M17 9.39343V12.9091H14L10.5 9.39343H17Z" fill="#3D4355"/>
<path d="M3.22131 12.9091C2.27063 12.9091 1.5 12.3844 1.5 11.7372L1.5 10.5653C1.5 9.91816 2.27063 9.39343 3.22131 9.39343L5 9.39343L5 12.9091L3.22131 12.9091Z" fill="#3D4355"/>
<path d="M4.5 12.9091L4.5 9.39343L7.5 9.39343L11 12.9091L4.5 12.9091Z" fill="#3D4355"/>
</svg>
