<svg width="20" height="20" viewBox="0 0 20 20" fill="none" xmlns="http://www.w3.org/2000/svg">
<path d="M8.97427 5.92627C8.68437 5.92627 8.08417 5.93852 7.89697 5.95587V9.03567C8.05957 9.05147 8.60687 9.05922 8.82287 9.05922C10.1739 9.05922 10.8589 8.50162 10.8589 7.40192C10.8589 6.42272 10.2249 5.92627 8.97427 5.92627Z" fill="#3D4355"/>
<path d="M16.0596 1.00293H2.9404C1.86865 1.00293 1 1.87173 1 2.94338V16.0574C1 17.1292 1.86865 17.998 2.9404 17.998H16.0596C17.1314 17.998 18 17.1292 18 16.0574V2.94338C18 1.87173 17.1313 1.00293 16.0596 1.00293ZM12.2895 9.88783C11.5104 10.7135 10.269 11.168 8.79255 11.168C8.6222 11.168 8.08055 11.1654 7.89695 11.1539V14.2147C7.89695 14.7408 7.47045 15.1674 6.9442 15.1674H6.7279C6.2017 15.1674 5.77505 14.7409 5.77505 14.2147V4.89473C5.77505 4.41223 6.1358 4.00588 6.6149 3.94873C7.25555 3.87223 8.2775 3.83343 8.944 3.83343C10.3472 3.83343 11.4283 4.16388 12.1569 4.81558C12.8456 5.41508 13.2249 6.31178 13.2249 7.34168C13.2249 8.38908 12.9102 9.24568 12.2895 9.88783Z" fill="#3D4355"/>
</svg>
