<svg width="20" height="20" viewBox="0 0 20 20" fill="none" xmlns="http://www.w3.org/2000/svg">
<g id="pool">
<g id="Group">
<g id="man-swimming">
<path id="Path" d="M13.7819 9.08502C14.7828 9.00458 15.5291 8.12803 15.4487 7.12736C15.3682 6.12637 14.4918 5.38006 13.4908 5.46053C12.4899 5.54065 11.7437 6.41715 11.8242 7.41823C11.9046 8.41918 12.781 9.16545 13.7819 9.08502Z" fill="#3D4355"/>
<path id="Path_2" d="M2.9186 8.81854L6.23789 7.40454L8.208 8.43469L4.05505 10.5864C4.22904 10.6753 4.39807 10.7774 4.55303 10.9088C5.51279 10.1019 6.92664 10.1023 7.88524 10.9091C8.8373 10.0993 10.2492 10.0942 11.218 10.9066C11.4368 10.7006 11.6114 10.4367 11.7129 10.1278C11.8659 9.66317 11.8518 9.14754 11.6734 8.69446C11.5528 8.38789 11.225 7.99736 10.7046 7.72805C10.1065 7.41846 6.60839 5.53943 6.60839 5.53943C6.41199 5.43582 6.1863 5.42703 5.98603 5.51347L2.35097 7.06208C1.92804 7.2421 1.7126 7.78112 1.86947 8.26638C2.02642 8.7516 2.49954 8.9982 2.9186 8.81854Z" fill="#3D4355"/>
<path id="Path_3" d="M19.8059 11.3865C19.5462 11.1517 19.1249 11.1523 18.8651 11.3859C18.6563 11.5744 18.3154 11.5739 18.1077 11.3865C17.4073 10.7542 16.1713 10.753 15.469 11.3871C15.2678 11.5685 14.916 11.5685 14.7135 11.3865C14.0105 10.7504 12.7817 10.7498 12.0761 11.3865C11.8735 11.5685 11.5216 11.5685 11.3191 11.3865L11.2801 11.3525C10.5752 10.7518 9.37178 10.7638 8.67896 11.3877C8.48034 11.5674 8.12599 11.5683 7.92348 11.3868C7.23021 10.7601 5.97927 10.7592 5.28474 11.3871C5.08613 11.5674 4.73109 11.5685 4.52971 11.3859C3.82426 10.7504 2.59671 10.7518 1.89369 11.3856C1.68273 11.5744 1.34187 11.5735 1.1348 11.3859C0.875071 11.1523 0.453881 11.1517 0.19423 11.3865C-0.0648516 11.6207 -0.0648516 12.0003 0.19488 12.2342C0.921852 12.8887 2.10469 12.889 2.83301 12.2339C3.03548 12.0518 3.38861 12.0527 3.58849 12.233C4.29219 12.8697 5.5223 12.8697 6.22596 12.2341C6.42458 12.0538 6.78108 12.0518 6.98485 12.2356C7.3373 12.5526 7.80535 12.7274 8.30199 12.7274C8.80054 12.7274 9.26847 12.5524 9.62168 12.2333C9.8229 12.0521 10.1773 12.0524 10.3772 12.233L10.4168 12.2669C11.1237 12.8717 12.3234 12.8579 13.016 12.2341C13.2198 12.0509 13.5703 12.0509 13.7728 12.2336C14.4778 12.8703 15.706 12.8697 16.4109 12.233C16.6108 12.0527 16.9654 12.0512 17.1679 12.2345C17.8948 12.8893 19.0782 12.8878 19.8053 12.2342C20.0648 12.0003 20.0648 11.6207 19.8059 11.3865Z" fill="#3D4355"/>
<path id="Path_4" d="M15.265 13.1487L15.1907 13.2049C14.9843 13.3858 14.6179 13.3849 14.4115 13.2052C13.6858 12.5685 12.418 12.5679 11.6883 13.204C11.4792 13.3872 11.1159 13.3867 10.9069 13.2046L10.8667 13.1706C10.139 12.57 8.89676 12.5819 8.18159 13.2058C7.97657 13.3855 7.61079 13.3864 7.40174 13.2049C6.68141 12.5735 5.40219 12.5732 4.67851 13.2046C4.47286 13.3852 4.10637 13.3855 3.89917 13.2049C3.63189 12.9705 3.19766 12.9698 2.92892 13.2037C2.66031 13.4373 2.66031 13.817 2.92758 14.0514C3.64858 14.6834 4.92843 14.6834 5.64947 14.052C5.85717 13.8702 6.22111 13.8685 6.43284 14.0538C6.79665 14.3708 7.2798 14.5455 7.79246 14.5455C8.30709 14.5455 8.79012 14.3705 9.15472 14.0514C9.36243 13.8702 9.72825 13.8705 9.93462 14.0511L9.97553 14.085C10.7066 14.6901 11.9449 14.6763 12.6592 14.0517C12.8682 13.8696 13.2313 13.8687 13.4405 14.0526C14.1582 14.6787 15.4233 14.6837 16.1463 14.0654C16.3996 13.8591 16.4385 13.5154 16.2261 13.268C15.9981 13.0029 15.5679 12.9491 15.265 13.1487Z" fill="#3D4355"/>
</g>
</g>
</g>
</svg>
