<svg width="20" height="20" viewBox="0 0 20 20" fill="none" xmlns="http://www.w3.org/2000/svg">
<path d="M15.3725 14.4296V18.8281C15.3725 19.2596 15.7959 19.6094 16.3182 19.6094C16.8405 19.6094 17.2639 19.2596 17.2639 18.8281V0.390625C15.0759 1.61191 13.7648 3.65094 13.7648 5.83234V10.9008C13.7648 11.337 13.9745 11.7553 14.3479 12.0637L15.3725 12.9102V14.4296Z" fill="#3D4355"/>
<path d="M3.4729 5V5.15625C3.4729 6.06867 4.21208 6.83797 5.22249 7.07918V14.4296V18.8281C5.22249 19.2596 5.64589 19.6094 6.16821 19.6094C6.69054 19.6094 7.11394 19.2596 7.11394 18.8281V7.07918C8.12435 6.83793 8.86353 6.06867 8.86353 5.15625V5H3.4729Z" fill="#3D4355"/>
<path d="M17.4859 0.045625C17.3314 -0.0221093 17.1442 -0.0139453 16.9993 0.0669141C14.6779 1.36266 13.292 3.51797 13.292 5.83238V10.9008C13.292 11.4445 13.5483 11.9555 14.0136 12.34L14.8997 13.072V18.8281C14.8997 19.4743 15.5361 20 16.3183 20C17.1005 20 17.7369 19.4743 17.7369 18.8281V0.390625C17.7369 0.246133 17.6403 0.113438 17.4859 0.045625ZM16.7912 18.8281C16.7912 19.0435 16.579 19.2188 16.3183 19.2188C16.0576 19.2188 15.8454 19.0435 15.8454 18.8281V12.9102C15.8454 12.8066 15.7956 12.7072 15.7069 12.6339L14.6823 11.7875C14.3956 11.5507 14.2377 11.2358 14.2377 10.9008V5.83238C14.2377 4.03629 15.1778 2.34824 16.7912 1.18348V18.8281Z" fill="#3D4355"/>
<path d="M9.33635 5.15625V0.390625C9.33635 0.174883 9.12465 0 8.86349 0C8.60232 0 8.39062 0.174883 8.39062 0.390625V4.60938H7.53909C7.53914 4.60719 7.53947 4.60508 7.53947 4.60285V0.390625C7.53947 0.174883 7.32777 0 7.06661 0C6.80545 0 6.59375 0.174883 6.59375 0.390625V4.60285C6.59375 4.60504 6.59413 4.60719 6.59413 4.60938H5.74222C5.74227 4.60719 5.7426 4.60508 5.7426 4.60285V0.390625C5.7426 0.174883 5.5309 0 5.26974 0C5.00858 0 4.79688 0.174883 4.79688 0.390625V4.60285C4.79688 4.60504 4.79725 4.60719 4.79725 4.60938H3.94572V0.390625C3.94572 0.174883 3.73402 0 3.47286 0C3.2117 0 3 0.174883 3 0.390625V5.15625C3 6.11445 3.70381 6.97926 4.74959 7.35309V18.8281C4.74959 19.4743 5.38597 20 6.16817 20C6.95038 20 7.58676 19.4743 7.58676 18.8281V7.35309C8.63254 6.97926 9.33635 6.11445 9.33635 5.15625ZM6.98263 6.70391C6.78034 6.75219 6.64104 6.9052 6.64104 7.07918V18.8281C6.64104 19.0435 6.42891 19.2188 6.16817 19.2188C5.90744 19.2188 5.69531 19.0435 5.69531 18.8281V7.07918C5.69531 6.9052 5.55605 6.75219 5.35372 6.70391C4.61686 6.52801 4.07789 6.00551 3.9671 5.39062H8.3692C8.25846 6.00551 7.71949 6.52801 6.98263 6.70391Z" fill="#3D4355"/>
</svg>
