<svg width="20" height="20" viewBox="0 0 20 20" fill="none" xmlns="http://www.w3.org/2000/svg">
<g clip-path="url(#clip0)">
<path d="M16.3547 9H4.95036C4.60415 9 4.10029 9 4.01309 9.3777C3.9947 9.45737 4.00996 9.54027 4.0302 9.61949C4.52831 11.5693 5.21898 13.2554 5.5 13.5C6.07446 14 6 14 6.5 14C7 14 8 14.5 7.5 17C7.20583 18.4709 7 18.5 6.3759 19H15.8795C16.1963 16.6667 17 12 17.5 10.5C17.9492 9.15232 17.1467 9 16.3547 9Z" fill="#3D4355"/>
<path d="M8.80725 0.723525C8.5361 0.544387 8.17386 0.615951 7.99472 0.886031C7.81512 1.1555 7.88837 1.51942 8.15723 1.69856C8.39008 1.85359 8.52344 2.14213 8.52344 2.42198C8.52344 2.70183 8.39008 2.95131 8.15723 3.10634C7.60104 3.47713 7.26917 4.0974 7.26917 4.76573C7.26917 5.43407 7.60104 6.05433 8.15723 6.42512C8.43143 6.60686 8.79321 6.52781 8.96976 6.26262C9.14951 5.99315 9.07672 5.62968 8.80725 5.45009C8.5744 5.29491 8.44104 5.04558 8.44104 4.76573C8.44104 4.48588 8.5744 4.2364 8.80725 4.08122C9.36343 3.71043 9.69531 3.09016 9.69531 2.42198C9.69531 1.75365 9.36343 1.09431 8.80725 0.723525Z" fill="#3D4355"/>
<path d="M12.625 2.42198C12.625 1.75365 12.2931 1.09431 11.7369 0.723525C11.4658 0.544387 11.1035 0.615951 10.9244 0.886031C10.7448 1.1555 10.8181 1.51942 11.0869 1.69856C11.3199 1.85359 11.4531 2.14213 11.4531 2.42198C11.4531 2.70183 11.3199 2.95131 11.0869 3.10634C10.5307 3.47713 10.1989 4.0974 10.1989 4.76573C10.1989 5.43407 10.5307 6.05433 11.0869 6.42512C11.3611 6.60686 11.7229 6.52781 11.8994 6.26262C12.0792 5.99315 12.0066 5.62984 11.7369 5.45009C11.5041 5.29506 11.3707 5.04558 11.3707 4.76573C11.3707 4.48588 11.5041 4.2364 11.7369 4.08137C12.2931 3.71059 12.625 3.09032 12.625 2.42198Z" fill="#3D4355"/>
<path d="M13.1285 4.76573C13.1285 5.43407 13.4604 6.05433 14.0166 6.42512C14.2908 6.60686 14.6526 6.52781 14.8291 6.26262C15.0089 5.99315 14.9361 5.62968 14.6666 5.45009C14.4338 5.29491 14.3004 5.04558 14.3004 4.76573C14.3004 4.48588 14.4338 4.2364 14.6666 4.08122C15.2228 3.71043 15.5547 3.09016 15.5547 2.42198C15.5547 1.75365 15.2228 1.09431 14.6666 0.723525C14.3949 0.544387 14.0332 0.615951 13.8541 0.886031C13.6745 1.1555 13.7477 1.51942 14.0166 1.69856C14.2495 1.85359 14.3828 2.14213 14.3828 2.42198C14.3828 2.70183 14.2495 2.95131 14.0166 3.10634C13.4604 3.47713 13.1285 4.0974 13.1285 4.76573Z" fill="#3D4355"/>
<path d="M1.17188 8.72485V16.4427C1.17188 18.058 2.56439 19.3724 4.17969 19.3724C5.79498 19.3724 7.10938 18.058 7.10938 16.4427V15.2709C7.10938 14.9469 6.84738 14.6849 6.52344 14.6849H2.34375V8.72485C2.34375 7.51743 1.85394 6.33533 1.00021 5.4816C0.771332 5.25272 0.400543 5.25272 0.171661 5.4816C-0.0572205 5.71048 -0.0572205 6.08127 0.171661 6.31015C0.807343 6.94583 1.17188 7.82596 1.17188 8.72485Z" fill="#3D4355"/>
<rect x="9.25" y="12.25" width="0.5" height="3.5" rx="0.25" fill="white" stroke="white" stroke-width="0.5" stroke-linecap="round"/>
<rect x="11.25" y="12.25" width="0.5" height="3.5" rx="0.25" fill="white" stroke="white" stroke-width="0.5" stroke-linecap="round"/>
<rect x="13.25" y="12.25" width="0.5" height="3.5" rx="0.25" fill="white" stroke="white" stroke-width="0.5" stroke-linecap="round"/>
</g>
<defs>
<clipPath id="clip0">
<path d="M0 0H20V20H0V0Z" fill="white"/>
</clipPath>
</defs>
</svg>
