<svg width="20" height="20" viewBox="0 0 20 20" fill="none" xmlns="http://www.w3.org/2000/svg">
<path d="M18.3333 11.75H15.3333V11.5C16.1089 11.2848 16.9413 10.723 16.9421 9.6542V9.49996C16.9432 8.90296 16.3135 8.42095 16 7.99996L15 6.99996L14 7.99996C13.6865 8.42095 12.9989 8.90296 13 9.49996V9.6542C13.0008 10.723 13.8911 11.2848 14.6667 11.5V11.75H12.8667C11.9269 10.9965 10.888 10.496 9.80729 10.2762C11.151 9.71594 12 8.79067 12 7.69995C12 6.44004 10.8667 5.39634 9.13737 4.88745C9.84733 4.50754 10.3333 3.94065 10.3333 3.19995C10.3333 1.73833 8.44434 0.949951 6.66667 0.949951C4.889 0.949951 3 1.73833 3 3.19995C3 3.94065 3.486 4.50754 4.19596 4.88745C2.46663 5.39634 1.33333 6.44004 1.33333 7.69995C1.33333 8.8645 2.29997 9.84053 3.80827 10.3846C1.53141 11.0457 0 12.3988 0 14C0 16.271 3.07471 18.05 7 18.05C8.4279 18.068 9.84977 17.7997 11.2194 17.2539C11.7345 17.7694 12.3587 18.0484 13 18.05H17C18.6561 18.0475 19.9982 16.2357 20 14C19.9989 12.7578 19.2534 11.7515 18.3333 11.75ZM3.66667 3.19995C3.66667 2.64954 4.83529 1.84995 6.66667 1.84995C8.49805 1.84995 9.66667 2.64954 9.66667 3.19995C9.66667 3.75037 8.49805 4.54995 6.66667 4.54995C4.83529 4.54995 3.66667 3.75037 3.66667 3.19995ZM2 7.69995C2 6.6356 3.91667 5.44995 6.66667 5.44995C9.41667 5.44995 11.3333 6.6356 11.3333 7.69995C11.3333 8.76431 9.41667 9.94995 6.66667 9.94995C3.91667 9.94995 2 8.76431 2 7.69995ZM7 17.15C3.2666 17.15 0.666667 15.4899 0.666667 14C0.666667 12.51 3.2666 10.85 7 10.85C8.49609 10.8196 9.98503 11.1336 11.403 11.7783C11.39 11.7809 11.3779 11.7882 11.3651 11.7913C11.3226 11.8018 11.2827 11.8187 11.2417 11.8337C11.1815 11.8541 11.1221 11.8789 11.064 11.9084C11.0233 11.9299 10.9847 11.9534 10.9453 11.9813C10.8916 12.0156 10.8394 12.0541 10.7887 12.096C10.7513 12.1274 10.716 12.1608 10.681 12.196C10.6338 12.243 10.5885 12.2936 10.5454 12.3472C10.512 12.3867 10.4823 12.4267 10.4526 12.4696C10.4123 12.5287 10.3743 12.5906 10.339 12.6554C10.3133 12.7003 10.2876 12.7453 10.2646 12.7948C10.2319 12.8662 10.2023 12.94 10.1756 13.0158C10.1577 13.0648 10.138 13.112 10.1227 13.1635C10.0978 13.2516 10.0771 13.3416 10.0607 13.4335C10.0516 13.4783 10.0394 13.5234 10.0327 13.5684C10.0116 13.7106 10.0005 13.8549 10 14C10 14.1349 10.0067 14.27 10.0163 14.4049C10.0194 14.446 10.0239 14.4864 10.028 14.5273C10.0373 14.6222 10.0487 14.7163 10.0614 14.8094C10.068 14.8545 10.0747 14.896 10.082 14.9391C10.0993 15.0382 10.12 15.1353 10.1427 15.232C10.1501 15.2632 10.1559 15.2946 10.1641 15.3251C10.196 15.4499 10.2324 15.5723 10.2733 15.6925C10.2827 15.7198 10.2936 15.7459 10.3037 15.7734C10.3371 15.8661 10.373 15.9575 10.4116 16.0465C10.4281 16.0838 10.445 16.1208 10.4624 16.1577C10.4998 16.2381 10.5396 16.3165 10.5814 16.393C10.5993 16.426 10.6167 16.4591 10.6353 16.4916C10.6447 16.5079 10.653 16.5253 10.6626 16.5411C9.46647 16.9575 8.23535 17.1623 7 17.15ZM17 17.15H13C11.7119 17.1482 10.668 15.7389 10.6667 14C10.6667 13.2544 11.1144 12.65 11.6667 12.65H18.3333C18.8856 12.65 19.3333 13.2544 19.3333 14C19.3319 15.7389 18.2881 17.148 17 17.15Z" fill="#3D4355"/>
<ellipse cx="6.5" cy="3.42502" rx="3.5" ry="2.025" fill="#3D4355"/>
<path d="M12 7.47498C12 9.33894 9.76144 10.85 7.00002 10.85C4.2386 10.85 1.5 9.49998 2.00002 7.47498C2.00002 5.61101 4.2386 4.09998 7.00002 4.09998C9.76144 4.09998 12 5.61101 12 7.47498Z" fill="#3D4355"/>
<path d="M19.5 14.9C19.5 16.764 17.7614 17.6 15 17.6C12.2386 17.6 9.5 16.25 10 14.225C10 12.361 12.5 11.525 15 12.2C17.5 11.525 20 12.2 19.5 14.9Z" fill="#3D4355"/>
<path d="M11.5 12.2C9.5 13.55 10.5528 15.0426 11 16.25C11.5 17.6 4 18.275 0.5 14.9C0.5 13.0361 1.91015 10.175 5.5 10.175C11 10.175 11.5 10.3361 11.5 12.2Z" fill="#3D4355"/>
<path d="M13 11.525C10.5 11.525 9.0001 14.9 11.5 17.6" stroke="white" stroke-width="0.4" stroke-linecap="round"/>
</svg>
