<?xml version="1.0" encoding="UTF-8"?>
<svg width="12px" height="12px" viewBox="0 0 12 12" version="1.1" xmlns="http://www.w3.org/2000/svg" xmlns:xlink="http://www.w3.org/1999/xlink">
    <!-- Generator: Sketch 58 (84663) - https://sketch.com -->
    <title>Path</title>
    <desc>Created with Sketch.</desc>
    <g id="Propuesta-3" stroke="none" stroke-width="1" fill="none" fill-rule="evenodd">
        <g id="2-Resultados" transform="translate(-565.000000, -253.000000)" fill="#DFB915" fill-rule="nonzero">
            <g id="resultado" transform="translate(333.000000, 214.000000)">
                <path d="M243.983535,43.2325021 C243.944128,43.1145314 243.840685,43.0302666 243.715075,43.011006 L239.971405,42.4909716 L238.286753,39.1805675 C238.230106,39.0698194 238.114347,39 237.988737,39 C237.863127,39 237.747369,39.0698194 237.690722,39.1829751 L236.028237,42.5030095 L232.284567,43.0471195 C232.158957,43.0663801 232.055513,43.1506449 232.016106,43.2686156 C231.976699,43.3865864 232.01118,43.516595 232.102309,43.6008598 L234.818933,46.1745486 L234.190883,49.8196045 C234.168716,49.9423904 234.220438,50.0651763 234.323882,50.1374033 C234.380529,50.1783319 234.449491,50.2 234.518454,50.2 C234.572639,50.2 234.62436,50.1879622 234.673619,50.1614789 L238.01583,48.4304385 L241.367892,50.1422184 C241.417151,50.1662941 241.468873,50.1783319 241.520594,50.1783319 C241.702852,50.1783319 241.853091,50.0314703 241.853091,49.8533104 C241.853091,49.8268272 241.850628,49.8027515 241.84324,49.7786758 L241.195486,46.155288 L243.894869,43.5671539 C243.990924,43.4804815 244.022942,43.3504729 243.983535,43.2325021 Z" id="Path"></path>
            </g>
        </g>
    </g>
</svg>