<svg width="20" height="20" viewBox="0 0 20 20" fill="none" xmlns="http://www.w3.org/2000/svg">
<g clip-path="url(#clip0)">
<path d="M3.25154 9.38798C2.83461 9.8049 2.83461 10.4834 3.25154 10.9044C3.66846 11.3214 4.34698 11.3214 4.76799 10.9044C7.65375 8.01868 12.3503 8.01868 15.236 10.9044C15.4445 11.1129 15.7184 11.2192 15.9922 11.2192C16.2661 11.2192 16.5399 11.1129 16.7484 10.9044C17.1653 10.4875 17.1653 9.80899 16.7484 9.38798C13.0288 5.66429 6.97114 5.66429 3.25154 9.38798Z" fill="#3D4355"/>
<path d="M6.14546 12.2818C5.72853 12.6988 5.72853 13.3773 6.14546 13.7983C6.56238 14.2152 7.2409 14.2152 7.66191 13.7983C8.94946 12.5066 11.0504 12.5066 12.338 13.7983C12.5464 14.0067 12.8203 14.113 13.0942 14.113C13.368 14.113 13.6419 14.0067 13.8503 13.7983C14.2673 13.3814 14.2673 12.7028 13.8503 12.2859C11.7289 10.1564 8.27094 10.1564 6.14546 12.2818Z" fill="#3D4355"/>
<path d="M10 17.5589C10.7879 17.5589 11.4265 16.9202 11.4265 16.1323C11.4265 15.3445 10.7879 14.7058 10 14.7058C9.21216 14.7058 8.57349 15.3445 8.57349 16.1323C8.57349 16.9202 9.21216 17.5589 10 17.5589Z" fill="#3D4355"/>
<path d="M19.6873 6.44496C14.345 1.10672 5.65502 1.10672 0.312692 6.44496C-0.104231 6.86189 -0.104231 7.54041 0.312692 7.96142C0.729614 8.37834 1.40813 8.37834 1.82914 7.96142C6.33354 3.45293 13.6665 3.45293 18.1749 7.96142C18.3834 8.16988 18.6573 8.27615 18.9311 8.27615C19.205 8.27615 19.4788 8.16988 19.6873 7.96142C20.1042 7.54449 20.1042 6.86597 19.6873 6.44496Z" fill="#3D4355"/>
</g>
<defs>
<clipPath id="clip0">
<path d="M0 0H20V20H0V0Z" fill="white"/>
</clipPath>
</defs>
</svg>
