<svg xmlns="http://www.w3.org/2000/svg" width="142" height="142" viewBox="0 0 142 142">
    <g fill="none" fill-rule="evenodd">
        <path fill="#F2F2F2" d="M70.634 40.262c2.543 0 4.605-2.002 4.605-4.472 0-2.47-2.062-4.472-4.605-4.472-2.543 0-4.605 2.002-4.605 4.472 0 2.47 2.062 4.472 4.605 4.472z"/>
        <path fill="#E8F0FF" d="M71 142c39.212 0 71-31.788 71-71S110.212 0 71 0 0 31.788 0 71s31.788 71 71 71z"/>
        <path fill="#3D4355" d="M111.607 99.4h1.493c.825 0 1.493.65 1.493 1.45v4.35c0 3.203-2.674 5.8-5.973 5.8H30.973c-3.299 0-5.973-2.597-5.973-5.8v-4.35c0-.8.669-1.45 1.493-1.45h1.493V47.2c0-3.203 2.675-5.8 5.973-5.8h71.675c3.299 0 5.973 2.597 5.973 5.8v52.2zm-2.987 8.7c1.65 0 2.987-1.298 2.987-2.9v-2.9H83.854l-2.55 2.475c-.28.272-.659.425-1.055.425H59.344c-.396 0-.776-.153-1.056-.425L55.74 102.3H27.985v2.9c0 1.602 1.337 2.9 2.987 2.9h77.647z"/>
        <path fill="#003B63" d="M68.54 97.178h2.513v2.439H68.54z"/>
        <path fill="#FFF" d="M35 46h69a3 3 0 0 1 3 3v50H32V49a3 3 0 0 1 3-3z"/>
        <path fill="#E8F0FF" d="M35 46h69a3 3 0 0 1 3 3v8H32v-8a3 3 0 0 1 3-3z"/>
        <g fill="#1D54C1" fill-rule="nonzero">
            <path d="M76 75a2 2 0 1 1-4 0 2 2 0 0 1 4 0zM67 75a2 2 0 1 1-4 0 2 2 0 0 1 4 0zM63.743 87c-.41 0-.743-.304-.743-.68 0-2.933 2.579-5.32 5.748-5.32h2.504C74.422 81 77 83.374 77 86.291c0 .376-.332.68-.743.68-.41 0-.742-.304-.742-.68 0-2.168-1.912-3.931-4.263-3.931h-2.504c-2.35 0-4.263 1.776-4.263 3.96 0 .376-.332.68-.742.68z"/>
            <path d="M69.5 94C60.953 94 54 87.047 54 78.5S60.953 63 69.5 63 85 69.953 85 78.5C85 87.046 78.047 94 69.5 94zm0-29.528c-7.735 0-14.028 6.293-14.028 14.028S61.765 92.528 69.5 92.528 83.528 86.235 83.528 78.5 77.235 64.472 69.5 64.472z"/>
        </g>
        <path stroke="#1D54C1" stroke-linecap="round" stroke-linejoin="round" stroke-width="3" d="M45.446 52.109h.792M39.109 52.109h.792M51.782 52.109h.792"/>
        <path stroke="#3D4355" stroke-linejoin="round" stroke-width="3" d="M30.5 57.5h77"/>
    </g>
</svg>
