<?xml version="1.0" encoding="UTF-8"?>
<svg width="9px" height="19px" viewBox="0 0 9 19" version="1.1" xmlns="http://www.w3.org/2000/svg" xmlns:xlink="http://www.w3.org/1999/xlink">
    <!-- Generator: Sketch 59.1 (86144) - https://sketch.com -->
    <title>XMLID_2_</title>
    <desc>Created with Sketch.</desc>
    <g id="Symbols" stroke="none" stroke-width="1" fill="none" fill-rule="evenodd">
        <g id="footer-dark-1280-" transform="translate(-148.000000, -65.000000)" fill="#3D4354" fill-rule="nonzero">
            <g id="footer">
                <g id="icon-facebook" transform="translate(130.000000, 52.000000)">
                    <g id="iconfinder_facebook_icon_1399544" transform="translate(18.000000, 13.000000)">
                        <path d="M0,9.48135165 C0,8.35445878 0,7.25154234 0,6.12464947 C0.634146341,6.12464947 1.24390244,6.12464947 1.90243902,6.12464947 C1.90243902,6.02874369 1.90243902,5.93283791 1.90243902,5.86090858 C1.90243902,5.06968592 1.87804878,4.27846326 1.92682927,3.48724061 C2.02439024,2.21648906 2.56097561,1.13754907 3.73170732,0.490185081 C4.29268293,0.178491307 4.87804878,0.0106561974 5.51219512,0.0106561974 C6.65853659,-0.0133202468 7.7804878,0.0106561974 8.92682927,0.0106561974 C8.92682927,1.08959619 8.92682927,2.16853617 8.92682927,3.27145261 C8.85365854,3.27145261 8.7804878,3.27145261 8.70731707,3.27145261 C8.07317073,3.27145261 7.43902439,3.27145261 6.7804878,3.27145261 C6.26829268,3.27145261 5.92682927,3.55916994 5.92682927,4.06267527 C5.90243902,4.75799215 5.92682927,5.45330903 5.92682927,6.14862591 C6.95121951,6.14862591 7.95121951,6.14862591 9,6.14862591 C8.87804878,7.27551879 8.75609756,8.37843522 8.65853659,9.5053281 C7.75609756,9.5053281 6.85365854,9.5053281 5.95121951,9.5053281 C5.95121951,12.6702187 5.95121951,15.8351094 5.95121951,19 C4.58536585,19 3.26829268,19 1.90243902,19 C1.90243902,18.9040942 1.90243902,18.8081884 1.90243902,18.7122827 C1.90243902,15.7392036 1.90243902,12.7421481 1.90243902,9.76906898 C1.90243902,9.55328099 1.85365854,9.48135165 1.6097561,9.48135165 C1.14634146,9.5053281 0.682926829,9.48135165 0.219512195,9.48135165 C0.170731707,9.48135165 0.0975609756,9.48135165 0,9.48135165 Z" id="XMLID_2_"></path>
                    </g>
                </g>
            </g>
        </g>
    </g>
</svg>